<svg xmlns="http://www.w3.org/2000/svg" viewBox="0 0 162.5 22.75">
  <g fill="none" stroke="#0A0A0A" stroke-width="2.25">
    <circle cx="11.375" cy="11.375" r="5.25"/>
    <path d="M11.375 1.125v5M11.375 16.625v5M1.125 11.375h5M16.625 11.375h5"/>
  </g>
  <path fill="#0A0A0A" transform="translate(30.713 17.631)" d="M6.893 0.227Q5.301 0.227 4.106 -0.375Q2.912 -0.978 2.252 -2.082Q1.593 -3.185 1.593 -4.686V-7.826Q1.593 -9.350 2.252 -10.442Q2.912 -11.534 4.106 -12.137Q5.301 -12.740 6.893 -12.740Q9.259 -12.740 10.670 -11.523Q12.080 -10.306 12.149 -8.213H9.305Q9.236 -9.191 8.611 -9.726Q7.985 -10.260 6.893 -10.260Q5.756 -10.260 5.096 -9.635Q4.436 -9.009 4.436 -7.849V-4.686Q4.436 -3.526 5.096 -2.889Q5.756 -2.252 6.893 -2.252Q7.985 -2.252 8.611 -2.787Q9.236 -3.321 9.305 -4.300H12.149Q12.080 -2.207 10.670 -0.990Q9.259 0.227 6.893 0.227Z M20.020 0.205Q18.428 0.205 17.256 -0.398Q16.084 -1.001 15.436 -2.104Q14.787 -3.208 14.787 -4.709V-7.803Q14.787 -9.305 15.436 -10.408Q16.084 -11.511 17.256 -12.114Q18.428 -12.717 20.020 -12.717Q21.635 -12.717 22.796 -12.114Q23.956 -11.511 24.604 -10.408Q25.252 -9.305 25.252 -7.826V-4.709Q25.252 -3.208 24.604 -2.104Q23.956 -1.001 22.796 -0.398Q21.635 0.205 20.020 0.205ZM20.020 -2.275Q21.157 -2.275 21.783 -2.901Q22.409 -3.526 22.409 -4.709V-7.803Q22.409 -9.009 21.783 -9.623Q21.157 -10.237 20.020 -10.237Q18.905 -10.237 18.268 -9.623Q17.631 -9.009 17.631 -7.803V-4.709Q17.631 -3.526 18.268 -2.901Q18.905 -2.275 20.020 -2.275Z M28.142 4.095V-12.512H30.917V-10.124H31.554L30.917 -9.464Q30.917 -10.988 31.827 -11.864Q32.737 -12.740 34.284 -12.740Q36.172 -12.740 37.310 -11.443Q38.447 -10.146 38.447 -7.962V-4.573Q38.447 -3.117 37.936 -2.036Q37.424 -0.956 36.491 -0.364Q35.558 0.227 34.284 0.227Q32.737 0.227 31.827 -0.648Q30.917 -1.524 30.917 -3.048L31.554 -2.389H30.895L30.986 0.592V4.095ZM33.283 -2.229Q34.375 -2.229 34.989 -2.866Q35.604 -3.503 35.604 -4.686V-7.826Q35.604 -9.009 34.989 -9.646Q34.375 -10.283 33.283 -10.283Q32.214 -10.283 31.600 -9.635Q30.986 -8.986 30.986 -7.826V-4.686Q30.986 -3.526 31.600 -2.878Q32.214 -2.229 33.283 -2.229Z M41.337 4.095V-12.512H44.112V-10.124H44.749L44.112 -9.464Q44.112 -10.988 45.022 -11.864Q45.932 -12.740 47.479 -12.740Q49.367 -12.740 50.505 -11.443Q51.642 -10.146 51.642 -7.962V-4.573Q51.642 -3.117 51.131 -2.036Q50.619 -0.956 49.686 -0.364Q48.753 0.227 47.479 0.227Q45.932 0.227 45.022 -0.648Q44.112 -1.524 44.112 -3.048L44.749 -2.389H44.090L44.181 0.592V4.095ZM46.478 -2.229Q47.570 -2.229 48.184 -2.866Q48.799 -3.503 48.799 -4.686V-7.826Q48.799 -9.009 48.184 -9.646Q47.570 -10.283 46.478 -10.283Q45.409 -10.283 44.795 -9.635Q44.181 -8.986 44.181 -7.826V-4.686Q44.181 -3.526 44.795 -2.878Q45.409 -2.229 46.478 -2.229Z M59.628 0.227Q58.035 0.227 56.852 -0.387Q55.669 -1.001 55.021 -2.104Q54.373 -3.208 54.373 -4.686V-7.826Q54.373 -9.305 55.021 -10.408Q55.669 -11.511 56.852 -12.126Q58.035 -12.740 59.628 -12.740Q61.198 -12.740 62.369 -12.126Q63.541 -11.511 64.189 -10.408Q64.838 -9.305 64.838 -7.826V-5.574H57.125V-4.686Q57.125 -3.367 57.762 -2.696Q58.399 -2.025 59.651 -2.025Q60.606 -2.025 61.198 -2.355Q61.789 -2.684 61.948 -3.321H64.746Q64.428 -1.706 63.029 -0.739Q61.630 0.227 59.628 0.227ZM62.085 -7.166V-7.849Q62.085 -9.146 61.471 -9.839Q60.856 -10.533 59.628 -10.533Q58.399 -10.533 57.762 -9.828Q57.125 -9.123 57.125 -7.826V-7.348L62.290 -7.394Z M68.113 0.000V-12.512H70.798V-10.124H71.503L70.661 -8.668Q70.661 -10.692 71.571 -11.716Q72.481 -12.740 74.256 -12.740Q76.281 -12.740 77.441 -11.489Q78.601 -10.237 78.601 -8.031V-7.121H75.621V-7.826Q75.621 -9.032 74.995 -9.692Q74.370 -10.351 73.278 -10.351Q72.163 -10.351 71.560 -9.692Q70.957 -9.032 70.957 -7.826V0.000Z M80.922 0.000V-16.607H83.766V-12.512L83.697 -10.124H84.471L83.697 -9.464Q83.697 -11.011 84.596 -11.875Q85.495 -12.740 87.064 -12.740Q88.907 -12.740 90.010 -11.511Q91.114 -10.283 91.114 -8.213V0.000H88.270V-7.917Q88.270 -9.054 87.678 -9.669Q87.087 -10.283 86.018 -10.283Q84.971 -10.283 84.368 -9.646Q83.766 -9.009 83.766 -7.826V0.000Z M99.213 0.227Q97.620 0.227 96.437 -0.387Q95.254 -1.001 94.606 -2.104Q93.957 -3.208 93.957 -4.686V-7.826Q93.957 -9.305 94.606 -10.408Q95.254 -11.511 96.437 -12.126Q97.620 -12.740 99.213 -12.740Q100.782 -12.740 101.954 -12.126Q103.126 -11.511 103.774 -10.408Q104.422 -9.305 104.422 -7.826V-5.574H96.710V-4.686Q96.710 -3.367 97.347 -2.696Q97.984 -2.025 99.236 -2.025Q100.191 -2.025 100.782 -2.355Q101.374 -2.684 101.533 -3.321H104.331Q104.013 -1.706 102.614 -0.739Q101.215 0.227 99.213 0.227ZM101.670 -7.166V-7.849Q101.670 -9.146 101.055 -9.839Q100.441 -10.533 99.213 -10.533Q97.984 -10.533 97.347 -9.828Q96.710 -9.123 96.710 -7.826V-7.348L101.874 -7.394Z M110.997 0.227Q109.064 0.227 107.949 -0.796Q106.834 -1.820 106.834 -3.549Q106.834 -5.392 108.062 -6.393Q109.291 -7.394 111.543 -7.394H114.660V-8.463Q114.660 -9.373 114.069 -9.885Q113.477 -10.397 112.453 -10.397Q111.520 -10.397 110.906 -9.987Q110.292 -9.578 110.178 -8.873H107.403Q107.608 -10.647 108.995 -11.694Q110.383 -12.740 112.544 -12.740Q114.842 -12.740 116.173 -11.591Q117.504 -10.442 117.504 -8.486V0.000H114.751V-2.184H114.296L114.751 -2.798Q114.751 -1.410 113.727 -0.591Q112.704 0.227 110.997 0.227ZM111.930 -1.911Q113.136 -1.911 113.898 -2.525Q114.660 -3.139 114.660 -4.118V-5.642H111.589Q110.724 -5.642 110.201 -5.141Q109.678 -4.641 109.678 -3.822Q109.678 -2.935 110.281 -2.423Q110.883 -1.911 111.930 -1.911Z M124.511 0.227Q122.645 0.227 121.496 -1.069Q120.347 -2.366 120.347 -4.550V-7.940Q120.347 -10.146 121.485 -11.443Q122.623 -12.740 124.511 -12.740Q126.058 -12.740 126.968 -11.864Q127.878 -10.988 127.878 -9.464L127.241 -10.124H127.900L127.809 -13.104V-16.607H130.653V0.000H127.878V-2.389H127.241L127.878 -3.048Q127.878 -1.524 126.968 -0.648Q126.058 0.227 124.511 0.227ZM125.512 -2.229Q126.604 -2.229 127.207 -2.878Q127.809 -3.526 127.809 -4.686V-7.826Q127.809 -8.986 127.207 -9.635Q126.604 -10.283 125.512 -10.283Q124.420 -10.283 123.805 -9.646Q123.191 -9.009 123.191 -7.826V-4.686Q123.191 -3.503 123.805 -2.866Q124.420 -2.229 125.512 -2.229Z"/>
</svg>
